<svg width="94" height="180" viewBox="0 0 94 180" fill="none" xmlns="http://www.w3.org/2000/svg">
<path fill-rule="evenodd" clip-rule="evenodd" d="M39.1562 24.9195C37.8509 22.174 37.296 19.0892 38.3338 16.0773C41.3242 7.39932 53.1145 12.6438 54.3132 17.7494C55.512 22.8549 52.1935 34.1016 48.8846 34.07C47.565 34.0575 45.1443 32.5735 42.9003 30.2433L41.3958 42.5775L31.4772 39.9198L39.1562 24.9195Z" fill="#D4A181"/>
<path fill-rule="evenodd" clip-rule="evenodd" d="M42.7557 25.2175C40.8932 27.2488 38.7157 28.5709 37.0162 28.1155C33.7882 27.2506 32.6495 22.3199 33.8928 17.6798C33.9365 17.5167 33.9831 17.3556 34.0325 17.1966C29.99 18.6249 26.1209 22.5385 21.6027 21.3278C15.4559 19.6808 16.3368 6.6284 24.9248 8.92956C30.7654 10.4945 33.4101 12.1159 35.5486 14.0385C36.4058 12.7927 37.4605 11.8348 38.5876 11.2705C38.8727 11.0826 39.2718 10.9366 39.7636 10.834C40.0673 10.7601 40.373 10.7155 40.6785 10.7022C42.3188 10.5535 44.5852 10.746 47.0237 11.309C47.479 11.4141 47.9233 11.5282 48.354 11.6498C48.971 9.37525 51.3125 8.02706 53.5906 8.63748C55.8731 9.24906 57.2276 11.5951 56.616 13.8776C56.0245 16.0849 53.8109 17.4244 51.6013 16.957C50.2522 17.0076 48.5755 16.8609 46.7681 16.5042C46.7667 17.1987 46.6631 17.9603 46.4401 18.7925C46.2432 19.5274 45.9532 20.285 45.5919 21.0363C45.3294 20.4754 44.8945 20.0387 44.3719 19.8987C42.9099 19.507 41.57 20.437 41.2278 21.7139C40.7936 23.3346 41.415 24.7577 42.7557 25.2175Z" fill="#191847"/>
<path fill-rule="evenodd" clip-rule="evenodd" d="M18.8256 77.7428L34.4983 131.75L41.8699 172.299H49.2688L41.8831 77.7428H18.8256Z" fill="#BA8B72"/>
<path fill-rule="evenodd" clip-rule="evenodd" d="M11.7821 77.7428C12.8757 105.799 12.4444 121.102 12.1996 123.651C11.9549 126.2 10.5654 143.271 1.09686 173.154H8.79237C21.3319 144.487 25.7093 127.415 27.1475 123.651C28.5857 119.886 32.8333 104.584 39.0346 77.7428H11.7821Z" fill="#D4A181"/>
<path fill-rule="evenodd" clip-rule="evenodd" d="M18.4891 77.7428C22.5658 96.3267 29.6168 125.991 39.642 166.737H50.4637C51.263 124.915 47.8628 97.3901 41.9745 77.7428H18.4891Z" fill="#69A1AC"/>
<path fill-rule="evenodd" clip-rule="evenodd" d="M11.7275 77.7428C12.7985 105.799 10.0229 133.44 1.42499 167.173H12.9712C25.5337 138.934 34.5377 111.429 40.6914 77.7428H11.7275Z" fill="#89C5CC"/>
<path fill-rule="evenodd" clip-rule="evenodd" d="M0 178.716L0.424612 171.871C2.91066 172.598 6.02448 172.313 9.76609 171.015C13.7892 173.865 18.8538 175.811 24.9599 176.853L24.9599 176.853C25.4257 176.932 25.7389 177.374 25.6594 177.84C25.6543 177.87 25.6475 177.9 25.6392 177.93L25.0521 180H9.76609H0.849225L0 178.716Z" fill="#191847"/>
<path fill-rule="evenodd" clip-rule="evenodd" d="M40.2183 178.716L40.6429 171.871C43.129 172.598 46.2428 172.313 49.9844 171.015C54.0075 173.865 59.0721 175.811 65.1782 176.853L65.1782 176.853C65.644 176.932 65.9572 177.374 65.8777 177.84C65.8726 177.87 65.8658 177.9 65.8575 177.93L65.2705 180H49.9844H41.0675L40.2183 178.716Z" fill="#191847"/>
<path fill-rule="evenodd" clip-rule="evenodd" d="M49.4392 53.6903L65.4767 48.259C68.418 45.7998 71.2098 43.9793 73.852 42.7976C74.6264 42.6236 75.9199 42.6638 74.3711 44.5494C72.8224 46.4351 71.2781 48.4882 71.7653 49.2392C72.2525 49.9901 73.91 49.3533 74.4379 50.5514C74.7899 51.3502 72.0308 52.0274 66.1605 52.5831L53.8179 60.4394L49.4392 53.6903ZM71.1532 64.4876L78.1996 62.0912C79.7058 58.8202 81.0876 57.2845 82.3451 57.484C83.3871 57.2058 80.9458 61.2441 82.8377 61.1902C84.7296 61.1362 89.7698 58.6079 90.4189 59.4162C91.3793 60.6119 89.8275 63.49 88.3661 64.8001C85.6346 67.2486 83.6167 67.8948 78.8281 68.3627C76.3244 68.6073 73.5091 69.486 70.3822 70.999L71.1532 64.4876Z" fill="#D4A181"/>
<path fill-rule="evenodd" clip-rule="evenodd" d="M42.6312 50.6501C47.7634 51.4992 54.7853 51.6218 62.8899 48.2803L64.6268 55.1685C58.7193 59.2716 50.9271 62.1245 44.7764 60.861C39.9294 59.8653 38.4787 53.5342 42.6312 50.6501Z" fill="#DB6969"/>
<path fill-rule="evenodd" clip-rule="evenodd" d="M47.7238 62.1035C52.9229 64.4187 62.3247 64.4273 75.9291 62.1293C77.946 69.2582 78.5881 74.2002 77.8552 76.9553C65.8623 80.7553 55.9992 81.6532 48.2151 80.4547C47.6502 85.0993 46.3182 89.3786 43.7315 93.0473C38.4137 100.589 17.109 88.9796 9.22984 89.136C7.19194 72.8084 17.522 68.1404 19.2767 58.2324C21.1983 47.3821 32.857 32.2151 34.139 32.4412L45.8302 34.5027C45.0139 42.904 46.6502 52.6102 47.7238 62.1035Z" fill="#DB6969"/>
</svg>
